<svg id="Layer_1" data-name="Layer 1" xmlns="http://www.w3.org/2000/svg" viewBox="0 0 800 398.84297"><defs><style>.cls-1{fill:#2c2c2c;}.cls-2{fill:#2d2d2d;}.cls-3{fill:#353535;}.cls-4{fill:#343434;}.cls-5{fill:#333;}</style></defs><path class="cls-1" d="M-359,270h40.34123c-.25622-1.28132-.99487-2.66321-.63188-3.6326.79926-2.13437,1.9622-5.64286,3.31515-5.80741,7.21251-.87707,9.71932-7.16488,13.93713-11.31277,2.72454-2.67935-.67793-8.28562-5.02833-8.23624-7.46049.08469-14.915.637-22.37391.95013-2.49479.10474-5.09468.50705-7.457-.042-1.51576-.35229-2.68526-2.19443-4.01-3.36871,1.20156-1.14621,2.26185-3.01383,3.63519-3.28275a31.08741,31.08741,0,0,1,7.95372-.00345c6.24581.42521,12.47877,1.07264,18.72934,1.35938.95831.044,2.01663-1.31027,2.9633-2.09656.54043-.44888,1.00116-1.56042,1.4086-1.51794,6.40264.66751,5.26784-3.83914,5.29484-7.56012a14.79223,14.79223,0,0,1,.07082-2.98987c.19692-.904.66458-2.36124,1.194-2.44605a3.89085,3.89085,0,0,1,2.99269.94513c2.63867,2.70075,5.07286,5.60132,8.02689,8.92756,1.51189-3.43488,2.72381-6.18821,3.93573-8.94156l1.38436.29675-.79914,6.12988q.48478.41515.96956.83026c1.107-1.371,2.95848-2.65319,3.13539-4.13525.22921-1.92044-.87626-4.00015-1.40715-6.01132l1.27075-.59381a34.19563,34.19563,0,0,0,2.04941,3.22958c.9333,1.17685,2.04055,2.21579,3.0724,3.31448a18.972,18.972,0,0,0,2.55939-3.12671c2.34774-4.54171,7.41973-6.37738,11.217-3.83651.56405.37744.82122,1.21347.70991,1.03952-3.05041.87948-6.36973,1.18213-8.75776,2.83236-1.02054.70527-.64772,4.433.11152,6.39225.618,1.59485,2.75539,2.601,4.7557,4.33276,0-1.70935.34591-3.403-.06772-4.88458-1.0541-3.77567.53751-5.31656,4.0701-5.59235,1.82383-.14239,3.91683-.88815,5.40125-.24225,1.64078.714,4.03453,2.932,3.83359,4.10743-1.11733,6.53649,2.19677,8.31872,8.85266,8.01553-2.109,3.81918-3.80531,6.94833-5.55548,10.04709q-3.93219,6.962-7.93636,13.88321c-.66293,1.14361-1.34982,3.01663-2.24732,3.15921-5.41719.86056-5.3441,6.06589-8.643,9.81778,2.32856.19549,3.85924.429,5.39086.43518,8.66617.035,17.35357-.34909,25.99115.14871,5.36017.30887,7.81874-1.71191,9.32756-6.5874,1.29666-4.18988,2.74589-7.86762.48521-12.39386-1.488-2.97922-2.883-4.16382-5.98944-3.42139a12.26681,12.26681,0,0,1-3.42688.60867,11.09009,11.09009,0,0,1-2.98266-1.054c.78443-.84619,1.41832-2.05881,2.38692-2.45676a29.07814,29.07814,0,0,1,5.10055-1.18027c.193-.65441.44589-1.03118.347-1.24633-3.57239-7.77521-3.56163-7.75534,3.27217-13.62455,2.00673-1.72342,3.8998-3.57916,6.121-5.629-1.12306-1.491-2.11-2.7573-3.05057-4.0571a21.65181,21.65181,0,0,1,.77514-26.46232c6.28616-7.48581,16.9187-8.39816,23.862-1.534,2.83831,2.806,5.29653,3.47287,8.76,1.92785a5.70011,5.70011,0,0,1,3.41-.49252,14.44063,14.44063,0,0,1,3.50608,1.97778c-.86789,1.01975-1.72917,2.04532-2.61431,3.0499-.08529.0968-.324.04492-.48194.09317-8.2018,2.50354-8.61249,4.07923-2.27715,10.74338l-8.00406,5.90747c3.924,4.27252-2.13382,5.71585-2.70036,8.2673,1.254,3.969,2.84991,7.49,3.40091,11.16761.62974,4.20334,2.79263,4.462,5.9071,3.29254a10.96322,10.96322,0,0,0,3.74745-2.378c2.83744-2.79846,5.5802-3.42963,8.30318-.11264,2.23653-1.324,4.2771-2.532,6.713-3.97409-.33753-3.63752-2.2007-8.308,4.1087-11.59372-1.40039,4.72326-5.54611,9.27694.99646,11.42212,3.921,1.28561,9.78589-1.38959,10.26872-3.85712.59554-3.04361-1.10347-5.06806-5.21969-5.89462-.221.6842-.50843,1.39157-.67067,2.12655a3.40977,3.40977,0,0,1-1.41278,2.47812c-.30735-1.9255-1.50611-4.94681-.74848-5.56317,1.97087-1.6033,4.80069-2.15076,7.68079-3.27252,1.04842,4.26956,1.62709,7.81915,2.8977,11.10083.40085,1.03531,2.68914,1.289,4.04961,2.01959,1.09624.58869,2.73512,1.20093,2.95235,2.09094a3.58358,3.58358,0,0,1-1.85626,2.98236c-8.9701,3.01355-17.71657,6.58408-27.75731,4.82224-2.96828-.52084-6.77266,2.58771-9.91327,4.49515a107.16514,107.16514,0,0,0-9.45758,6.95288,7.85142,7.85142,0,0,0-1.90456,2.18356c-4.53407,7.65317.52693,16.91843,9.288,16.9292,27.16551.03339,54.33137.063,81.496-.09491,1.87076-.01083,5.30774-1.552,5.32159-2.42444.05576-3.49847,2.16-7.57013-2.20972-10.416-5.67651-3.69712-11.03212-7.88312-16.60386-11.74616-4.38306-3.03894-9.19238-2.48758-13.70494-.62344-5.8665,2.42343-8.09046,1.27923-8.0996-4.95715q-.03625-24.749.00588-49.498c.01162-5.61823,2.47625-7.16925,7.52852-4.87033,6.07673,2.7651,10.027,1.84909,14.54643-2.76737,3.05452-3.11993,6.10054-5.81308,5.41064-10.96908-.2102-1.57108,1.75441-4.26493,3.39962-5.08176,3.57754-1.77625,4.05157-4.4375,3.80883-7.80292-.41822-5.79892.49472-10.942,6.33574-14.0592.97544-.52054,1.68793-2.53638,1.62277-3.81543-.19216-3.77323,1.43464-4.99109,5.02537-4.89643,6.49526.17124,12.99978.14212,19.49716.02121,3.38217-.06292,4.86313,1.19846,4.73639,4.70334-.05457,1.51013.34539,3.76386,1.36963,4.46332,5.18057,3.53793,5.88284,8.60623,5.48391,14.13416-.23453,3.24945.45355,5.54043,3.6796,7.31564,1.69665.93362,3.49591,3.80746,3.31439,5.61047-.46048,4.5744,2.79617,6.60144,4.71945,9.7638,4.62058,7.59756,11.1926,8.2525,19.12085,8.08594,20.82334-.43754,41.6619-.13749,62.49433-.17063,1.86181-.003,3.72317-.29172,5.58474-.44775l.05927-1.768a51.64553,51.64553,0,0,0-6.7254-.579c-3.60666.13764-5.10886-1.19586-4.98652-4.94577.21177-6.49268.15451-13.00058-.03936-19.49466-.03943-1.32046-1.18164-2.60806-1.81546-3.9108-.62436,1.35782-1.746,2.70029-1.78836,4.07605-.20044,6.49381-.16721,12.99756-.0878,19.49616.03573,2.92486-.61631,4.75912-4.11121,4.74737-3.37582-.01138-4.24081-1.58435-4.20459-4.642.11044-9.33164.15015-18.66739-.01755-27.99735-.06411-3.56931,1.43042-4.74,4.76615-4.60333,3.49374.14319,7.00982-.15711,10.495.06634,3.77985.24228,4.82144-1.36322,4.79788-4.9797-.1325-20.33161-.062-40.66459-.06152-60.99708q.00082-34.2486.00775-68.49721c.0473-29.091,20.49073-50.73093,49.43634-51.25885q43.48344-.79305,86.99152.00317c28.96966.53972,49.42828,22.19782,49.493,51.235.00818,3.66647-.299,7.37454.18164,10.97775a5.15345,5.15345,0,0,0,3.41077,3.46548c11.12243,1.438,11.7962,1.99326,14.2127,12.35782.27009,1.15827,1.92457,2.4614,3.19349,2.84168,7.15527,2.14416,9.01471,6.40747,5.90551,13.28055a5.17968,5.17968,0,0,0,.65839,4.56778c14.78088,16.49749,24.29065,35.72037,29.72211,57.04333.89673,3.52012,2.4555,5.0579,6.18213,4.7566,3.64245-.2945,7.33441.078,10.99224-.099,3.27027-.15821,4.58893,1.2298,4.40857,4.40558-.09436,1.66037-.41278,3.49212.14362,4.9515.51532,1.35144,1.956,2.45154,3.20178,3.37583.54358.40335,1.61975.13754,2.45032.09772,8.02191-.38428,14.55786,2.20721,18.052,9.84152,3.679,8.03815,3.12451,16.00391-2.25983,23.12582-1.87762,2.48349-2.37365,4.41993-1.01788,7.172a52.72525,52.72525,0,0,1,3.78619,9.23184c1.35187,4.94565,4.626,5.79847,9.101,5.52317,3.14813-.19367,4.55719-1.43079,4.53619-4.54761-.0415-6.166.73273-12.44962-.21954-18.46466-.88507-5.59037,2.06347-6.81382,6.48828-8.404V170.244c3.88757-1.87525,5.21094-4.79737,3.73181-7.5434-.95868-1.77972-4.1369-3.33829-6.29791-3.30923-5.95172.08011-8.44678,4.18689-6.68988,9.612.27972.86374.0802,2.57476-.45172,2.85968-.98957.53-3.17261.78732-3.477.29818-1.23365-1.98214-2.77063-4.3254-2.68219-6.47311.22827-5.54221,3.7832-9.14792,8.78784-11.05371,5.11627-1.94837,10.30719-1.86548,14.53064,2.04959,3.52795,3.27032,4.11108,7.3895,2.03113,11.89127-.61036,1.32119-1.33307,3.62381-.7107,4.31961,5.54279,6.19717,4.5177,12.38785.45172,18.71875,7.24982,2.53006,10.74012.19922,10.74329-7.06266.00409-9.33294.14624-18.66958-.09308-27.9964-.06457-2.51754-1.29407-5.00521-2.05664-7.75076h16.87567c-6.19427,5.6825-2.80127,12.45584-3.10882,18.65695-.02564.51636,1.63391,1.46412,2.60882,1.62873,10.21778,1.72482,11.54651.59048,11.5495-9.56858.0022-7.5289.00214-7.5289-4.0365-10.59436h17.413c-.75019,2.53427-2.06116,5.00852-2.12232,7.51328-.24395,9.99359.08216,20.00171-.19354,29.99365-.1,3.6229,1.26825,5.4379,4.55707,5.67881a111.21706,111.21706,0,0,0,13.9361.27194c1.17688-.062,3.1499-1.90537,3.23828-3.04776.66479-8.59015,1.007-17.20881,1.14611-25.82346.00562-.34961-3.32775-1.4791-4.57525-.96323-2.20355.91129-3.99848,2.811-7.029,5.1016,0-4.91581-.23261-8.80948.17633-12.63459.09314-.8713,2.39764-2.13269,3.697-2.1481,9.32129-.11066,18.64593.05408,27.96948.13135v12a9.60557,9.60557,0,0,0-2.02966-1.403c-1.7591-.643-3.58405-1.10608-5.38233-1.64194a21.61745,21.61745,0,0,0-1.091,4.61554c-.0968,5.80835-.22772,11.63525.12122,17.427.43292,7.18595,1.55725,8.15845,8.38177,9.00232v7a6.105,6.105,0,0,0-.98547-.15942q-69.72949-.04286-139.45893-.03824a10.4836,10.4836,0,0,0-2.7417.61017c2.45545,1.62124,4.79639,3.16681,7.13727,4.71237-2.35785,1.61255-4.71576,3.22507-7.40014,5.061-.24115-.61782-.06971.215.10583.21582Q369.32818,210.75781,441,211v7q-19.72119-.17605-39.44232-.35574c-3.0044-.02872-3.4599,1.844-3.45294,4.30151.0382,13.49439-.00983,26.98914.0614,40.48325.00647,1.235.28814,3.20444,1.05115,3.57343,3.49371,1.6896,7.158,3.96957,10.84594,4.13415,10.28974.4592,20.62158-.0249,30.93677-.13659v93H-359Q-359,316.5-359,270ZM185.76233,62.49348c-6.02087-1.44992-9.97962-.01541-13.75037,3.48514-15.49322,14.38294-24.94442,32.27491-30.96222,52.22159-2.29654,7.61234-3.95123,8.5242-11.62246,5.93564a3.37914,3.37914,0,0,1-.18219-.96393,13.774,13.774,0,0,1,.36212-1.95367c5.33917-20.97959,14.37213-40.08957,28.85617-56.366,2.12884-2.39227,3.00726-4.02008.90381-7.19055-3.3324-5.02286-.416-10.88132,5.80609-11.9328,3.28033-.55435,4.3996-1.75064,4.61749-5.038.37781-5.70141,3.55023-8.97674,8.77741-9.99688,7.45282-1.4545,7.45294-1.4545,7.45453-8.9899.0003-1.66645.00311-3.33289-.00123-4.99935-.03479-13.31856-6.93011-20.29529-20.3974-20.3298q-40.7443-.10445-81.48907.00126C70.77994-3.58489,63.96121,3.449,63.95789,16.89168q-.01474,59.99208-.00278,119.98416c-.00015,13.331-.00177,13.331,13.27173,13.37116,7.10031.02151,7.114.02151,7.11538,7.20935.00687,35.662.07233,71.32416-.07528,106.98551-.01868,4.51434,1.26269,6.1478,5.93036,6.05029,12.826-.26782,25.6614-.11664,38.49292-.07684,2.8612.00888,5.15545-.06921,5.54238-3.96558a6.01954,6.01954,0,0,1,3.59052-4.20337c3.4343-.90085,3.33786-3.10028,3.33344-5.68991-.0289-16.99768.04586-33.996-.09058-50.99262a12.88628,12.88628,0,0,0-1.69867-6.56338c-9.5715-14.92032-13.81253-31.26209-13.46726-48.86512a8.608,8.608,0,0,0-3.058-7.281c-1.91849-1.80234-3.37039-5.747-2.74673-8.148.62686-2.41339,3.84756-4.48615,6.37143-5.94983,1.53466-.89,3.90188-.42835,5.89526-.43045q30.74592-.03242,61.49185-.02634c1.6983-.00159,3.39655-.17459,5.09479-.26794l-.01135-1.83521c-16.39551-2.60626-33.10175.024-50.49717-1.56076C154.84271,100.17235,166.12183,79.259,185.76233,62.49348ZM360.4151,217.60674c-9.49664,0-18.99432.077-28.48944-.04168-3.32727-.04163-4.82233,1.02832-4.78778,4.58816.12958,13.32739.014,26.65705.10089,39.98514.009,1.37326.36993,3.56635,1.22888,3.96924,3.65338,1.71371,7.64386,4.27329,11.35217,4.036,16.5188-1.05685,33.37824,3.70136,49.64209-3.06457,2.9906-1.24411,3.81647-2.3176,3.80371-5.11988-.05981-13.1618-.12719-26.32522.03583-39.48529.0456-3.68811-1.21972-4.99747-4.89721-4.929C379.07739,217.71865,369.74518,217.60265,360.4151,217.60674Zm-67.40552-.00393c-8.31543,0-16.633.11251-24.94519-.052-3.6347-.07193-4.99951,1.21042-4.94317,4.92478.17144,11.30633.58673,22.65091-.13758,33.91339-.44153,6.86563,9.541,5.86316,8.168,12.6536-.05469.27057.86487.8818,1.422,1.09338a4.44831,4.44831,0,0,0,1.96417.22064c14.46509-1.46606,29.32294,3.312,43.57233-3.2062,2.92535-1.3382,4.26245-2.08616,4.23718-5.26084-.10431-13.13751-.13629-26.27743.016-39.414.04248-3.668-1.23224-5.00586-4.90771-4.92233C309.31067,217.73837,301.15869,217.61092,293.00958,217.60281Zm-321.6615,52.79233c11.81885,0,23.64029-.14151,35.45514.07614,4.18.077,5.50235-1.38574,5.34763-5.48328-.27612-7.31406-.16153-14.64706-.04657-21.96957.04538-2.89188-.8468-4.24842-3.96417-4.23258-16.64582.0846-33.29279-.01593-49.93778.12836a6.60527,6.60527,0,0,0-4.697,2.02222,55.53729,55.53729,0,0,1-20.70621,16.81048c-4.4371,2.17646-2.29333,6.84479-2.025,10.38382.06677.88056,3.31546,2.13861,5.119,2.16837C-52.2912,270.49411-40.47076,270.39956-28.65192,270.39514Zm65.616-50.54313q-.14823-1.02575-.29642-2.05154c-2.44369,0-4.901-.16376-7.328.0375-3.87039.3209-5.50012-1.17324-5.3024-5.14987.06183-1.24377-1.17758-2.55221-1.82141-3.83105-.62387,1.35248-1.74222,2.69421-1.772,4.05966-.069,3.16144-.76126,5.02487-4.50034,4.9357-3.64453-.08688-4.06711-2.15988-3.85489-4.93732.209-2.735-.481-4.46963-3.73382-4.45529-14.49744.06393-28.99543.0322-43.49311.0044-2.522-.00486-3.70834,1.00219-3.37677,3.6484a14.28754,14.28754,0,0,1-.00946,3.98749c-.55471,3.45642.69629,4.7912,4.28809,4.7746,22.32974-.10318,44.66031-.0347,66.99036-.0939A19.88915,19.88915,0,0,0,36.96405,219.852Zm178.87738-25.16333-1.78314-.2a36.0754,36.0754,0,0,0-1.028,5.87021c-.11517,8.65439-.20428,17.31494.01538,25.96521.09656,3.80191-1.15014,5.63059-5.03918,5.53543-4.15747-.10168-8.31879-.13925-12.47687-.08407-2.30939.03067-4.61554.30764-6.92315.47363.36193,4.31515,4.35876,1.83127,6.14483,3.28787,4.84986,3.955,9.53571,5.02512,14.57153.29846.50251-.47171,2.08539.20761,3.16688.35273-.26331,1.20214-.16663,2.70834-.86884,3.5397a32.09511,32.09511,0,0,1-4.5401,3.80231c2.56488,3.94442,8.07129,5.791,4.91235,11.735-2.32782-1.80722-4.46008-3.57605-6.71869-5.1651-1.033-.72677-2.8388-1.88537-3.40234-1.50985-4.9812,3.319-10.119,6.55551-14.07178,12.21276,5.61164,1.06363,8.27643,4.03232,8.43543,9.25419,1.88763.12634,3.51727.31979,5.14789.32748,3.7265.01755,7.98614,1.00763,8.11865-5.09042.023-1.05689,1.78955-2.73008,2.9906-2.9841,3.5545-.75174,3.69855-3.0286,3.68768-5.9159-.07208-19.14255-.03021-38.28546-.04931-57.42828C216.12982,197.54015,215.94238,196.11446,215.84143,194.68868Zm-37.61768,56.76108V194.55111l-1.85009-.11008c-1.99866,10.48764.25494,21.39533-1.48126,33.49457-8.543-5.061-16.08625-9.52978-24.03852-14.24087,0,3.91781-.45239,7.47985.14432,10.8565a16.76807,16.76807,0,0,0,3.53409,7.53491,30.42063,30.42063,0,0,0,7.69684,6.28592,6.02264,6.02264,0,0,0,5.05743-.0017c2.637-1.40735,4.88269-3.548,7.37262-5.4477,2.98035,6.18064-2.93262,7.86157-4.88739,11.71109C172.44781,246.79183,174.99347,248.84472,178.22375,251.44976ZM160.499,202.58215l1.22479-1.93021c-.98217-1.65094-2.0866-3.24231-2.92523-4.9632-3.54706-7.278-8.0455-14.30154-10.22851-21.97766-2.28522-8.03537-2.51358-16.69449-3.23648-25.11566-.27707-3.22742-1.66486-3.80768-4.40314-3.77881-2.61884.02762-4.64783.3323-4.6311,3.62668.09686,19.0708,4.97924,36.50946,17.83664,51.06091C155.575,201.13277,158.34576,201.58462,160.499,202.58215ZM39.96536,86.98726c0,15.65738-.0719,31.31555.09107,46.97122.02032,1.95386,1.28347,3.89481,1.97073,5.84174.62378-2.032,1.78336-4.0621,1.791-6.09647.116-30.81463.08215-61.62985.07681-92.44492a16.88434,16.88434,0,0,0-.17127-3.97613c-.1958-.79444-1.11236-1.41126-1.70559-2.10776-.66513.78095-1.66684,1.46909-1.91388,2.3653a15.33211,15.33211,0,0,0-.13437,3.974Q39.9642,64.25073,39.96536,86.98726ZM225.39685,259.52761q.20718.85529.41431,1.71057c4.7157.43259,7.13635,2.79236,7.70013,7.27317.09827.78036,2.59583,1.79959,3.96259,1.76666,2.82141-.0679,7.84185-.28705,8.06195-1.29486,1.02875-4.71018,3.8573-7.007,9.66479-8.69959-5.57342-4.44015-10.116-8.09707-14.7301-11.66137a1.9702,1.9702,0,0,0-1.82446.188C234.19379,252.33737,229.80389,255.94329,225.39685,259.52761Zm-74.60211-.35879c3.01385,3.01773,6.21039,4.7872,6.90741,7.261.97735,3.46866,2.59064,4.12128,5.55969,3.98945,2.43549-.10816,4.8797-.022,7.95477-.022-.99371-6.34588,3.3794-8.07873,8.59558-10.39621-5.20465-4.187-9.63555-7.7716-14.10595-11.30621a1.50611,1.50611,0,0,0-1.38111-.16928C159.62567,252.1643,154.97363,255.8644,150.79474,259.16882ZM226.18982,229.454c1.81818,1.52985,3.44177,2.92609,5.097,4.28382,8.40148,6.89114,8.3,6.75216,16.85345.16354,3.81738-2.94049,6.30463-5.96008,5.77624-11.18292-.51483-5.08972-2.32659-6.60331-6.95843-4.28055C240.1767,221.83849,233.54315,225.534,226.18982,229.454Zm-342.86452,2.64194c-3.08978-22.82806,5.516-39.38483,26.61135-49.64093-12.607-3.1481-20.16143,3.26944-25.91457,12.518C-123.49031,207.0498-123.67178,219.544-116.6747,232.09591Zm503.50081-50.42224c-.17621-10.94626,1.68378-9.70658-10.37671-9.77387a4.2236,4.2236,0,0,0-1.96057.15875c-.77515.44144-1.92328,1.189-1.94543,1.83939q-.26267,7.70742-.05109,15.42572c.01929.69766,1.07165,1.59689,1.85333,2.00726,6.72077,3.52848,12.4773.19345,12.48145-7.16458Q386.82783,182.92,386.82611,181.67367ZM-309.27378,269.909h27.4531c-2.01933-5.303-4.38749-8.272-10.38656-9.70608C-301.86888,257.89327-307.50788,260.0404-309.27378,269.909Zm218.84116-9.41995-1.47433,1.49286c.61471,2.69061.56766,7.17758,1.98169,7.69852,2.95846,1.0899,6.826.56036,10.00381-.377.81616-.24069,1.1442-6.33291.52-6.56439C-82.87851,261.44976-86.71744,261.13629-90.43262,260.48907ZM300.22522,156.35289c2.02472,3.41489-1.71875,8.2659,3.76984,8.36158,4.1405.07214,5.118-3.55048,5.13641-7.19815.02368-4.668-2.439-8.41675-5.31824-7.22052C301.9574,151.06682,301.22168,154.53417,300.22522,156.35289ZM24.14584,250.8413l-.02615-.00009c0-3.1625.0964-6.33-.06845-9.48395-.04071-.7792-.93057-1.514-1.43012-2.26916-.738.7186-2.0975,1.421-2.11669,2.15826q-.25329,9.72849-.00715,19.46521c.0196.77939,1.31156,1.52686,2.0138,2.28913.54492-.89032,1.50259-1.755,1.55975-2.67563C24.26645,257.1744,24.14584,254.00411,24.14584,250.8413Zm284.83664-59.22214c-1.3197-4.227-2.44775-8.18069-3.84039-12.03879-.31146-.86276-1.55115-1.39044-2.36346-2.07235-.56971.87014-1.53241,1.698-1.63154,2.61883a60.76138,60.76138,0,0,0-.10363,6.92414C301.08649,192.91921,302.14783,193.60671,308.98248,191.61916Zm-111.02185,52.46c-3.46777-2.72138-6.08575-4.77588-9.36987-7.35312v14.90628Zm46.13135.06668c3.4165,2.69281,6.01752,4.74289,9.31451,7.34155V236.6336C250.03418,239.35336,247.43665,241.44833,244.092,244.14581Zm-83.72174.03048c-3.28095-2.66858-5.92755-4.82119-9.13837-7.43267v14.80929C154.596,248.83737,157.17694,246.754,160.37024,244.17629Zm65.82153-7.4999v14.91619l9.14856-7.51464C232.0437,241.41082,229.54028,239.38546,226.19177,236.67639ZM341.00159,187.7607l1.71832,1.00171c1.44751-1.52466,4.0274-3.00558,4.08832-4.58377.10235-2.6503-1.398-5.36249-2.22406-8.04868-1.19422.6081-3.33252,1.10508-3.41938,1.84348A84.10256,84.10256,0,0,0,341.00159,187.7607ZM44.80923,20.98173c-.9942-2.57879-1.86965-4.84962-2.74514-7.12047-.70288,2.40233-1.92371,4.79723-1.95838,7.20919-.03256,2.26733,1.18714,4.55267,1.85584,6.83008C42.876,25.67872,43.79047,23.457,44.80923,20.98173Zm-148.00918,133.8708,3.52328,4.34881c.90665-1.24847,2.56049-2.5151,2.53073-3.74078-.0372-1.53024-1.46054-3.02685-2.2854-4.538C-100.51172,152.04921-101.5921,153.17583-103.19995,154.85253ZM-258.41521,225.9931l4.29917,1.48294-.04936-3.6478a33.37959,33.37959,0,0,0-6.88453.36267c-.4498.10642-.25343,2.94446-.35492,4.52332l1.50512.13809C-259.33846,227.77129-258.7772,226.6903-258.41521,225.9931Zm154.42574-53.10416c-1.57944-1.32367-2.55954-2.14508-3.53966-2.96646-.81081,1.02072-2.26251,2.04809-2.252,3.0603.01047,1.01019,1.4857,2.00522,2.31876,3.0069C-106.5029,175.133-105.54341,174.27633-103.98947,172.88894ZM179.74634,38.62337c-1.19568-1.26459-1.98944-2.104-2.78321-2.94352-.67517,1.0832-1.80535,2.13428-1.88482,3.25956-.06635.93951,1.09808,1.96588,1.71747,2.95379C177.65405,40.94206,178.51233,39.99092,179.74634,38.62337Z" transform="translate(359 35.84297)"/><path class="cls-2" d="M-85.91495,132.37862c-13.972-7.57376-18.8387-19.85217-13.73327-33.651,2.42376-6.55091,5.40765-12.89234,7.9949-19.38559,3.72562-9.35028,4.07953-13.7201,3.01434-23.4,1.72138,2.35025,3.5647,4.62177,5.1427,7.06467,6.31021,9.76883,7.787,19.637.68027,29.79617-8.006,11.44471-8.92834,23.70472-3.77426,36.55869A23.31753,23.31753,0,0,1-85.91495,132.37862Z" transform="translate(359 35.84297)"/><path class="cls-3" d="M398.35376,200.406c1.897,2.15069,3.14954,3.57068,4.402,4.99069-1.60352,1.1282-3.22992,3.16391-4.80414,3.12424-1.51263-.03812-2.97113-2.22534-4.45337-3.46823C394.87537,203.73486,396.25244,202.417,398.35376,200.406Z" transform="translate(359 35.84297)"/><path class="cls-4" d="M414.62793,200.39522l4.28857,4.68277c-1.49847,1.23646-2.99182,3.43128-4.49682,3.43931-1.4997.008-3.01111-2.17753-4.51734-3.40134C411.24573,203.774,412.58905,202.432,414.62793,200.39522Z" transform="translate(359 35.84297)"/><path class="cls-5" d="M381.58459,200.39709c2.08887,2.02093,3.44874,3.33661,4.8086,4.65228-1.46961,1.24176-2.91577,3.42786-4.41541,3.46518-1.56494.03888-3.18145-1.99216-4.77539-3.11826C378.44537,203.97832,379.68835,202.56033,381.58459,200.39709Z" transform="translate(359 35.84297)"/><path class="cls-3" d="M332.84192,200.41451c2.07019,2.02939,3.43323,3.3656,4.79626,4.70178-1.51013,1.22132-3.00634,3.38105-4.53424,3.40366-1.57086.02329-3.17254-2.03928-4.76074-3.189C329.62616,203.92886,330.90912,202.52682,332.84192,200.41451Z" transform="translate(359 35.84297)"/><path class="cls-5" d="M430.39575,200.26858c2.10968,2.18817,3.42316,3.55047,4.73657,4.91278-1.36413,1.19229-2.76037,3.37158-4.08416,3.32837-1.67432-.05457-3.28955-1.91834-4.93036-3.0018C427.30737,204.05105,428.49689,202.59417,430.39575,200.26858Z" transform="translate(359 35.84297)"/><path class="cls-4" d="M365.683,200.25906c1.93726,2.29428,3.14978,3.73031,4.36231,5.16632-1.4436,1.1166-2.96033,3.20309-4.31213,3.10128-1.64386-.12377-3.14893-2.09133-4.714-3.26129C362.31171,203.87792,363.60425,202.49053,365.683,200.25906Z" transform="translate(359 35.84297)"/><path class="cls-5" d="M354.3399,206.26092c-1.74017.83624-3.59692,2.49951-5.18762,2.27533-1.57959-.22263-2.89154-2.34436-4.32086-3.63324,1.47467-1.03669,2.9151-2.837,4.43305-2.90488,1.66632-.07452,3.404,1.4473,5.11059,2.27356Z" transform="translate(359 35.84297)"/><path class="cls-5" d="M316.37256,200.28548c2.1477,2.15607,3.488,3.50162,4.82831,4.84714-1.35016,1.20752-2.72345,3.40491-4.04474,3.37406-1.6836-.03931-3.32514-1.8808-4.9848-2.94541Z" transform="translate(359 35.84297)"/></svg>